<svg xmlns="http://www.w3.org/2000/svg" xmlns:xlink="http://www.w3.org/1999/xlink" width="800" zoomAndPan="magnify" viewBox="0 0 600 225" height="300" preserveAspectRatio="xMidYMid meet" version="1.0"><defs><g/><clipPath id="id1"><path d="M 22.5 18.566406 L 243 18.566406 L 243 206.066406 L 22.5 206.066406 Z M 22.5 18.566406 " clip-rule="nonzero"/></clipPath></defs><g fill="#ff1616" fill-opacity="1"><g transform="translate(261.041737, 98.963797)"><g><path d="M 16.0625 -17.828125 L 16.0625 0 L 4.890625 0 L 4.890625 -45.84375 L 22.984375 -45.84375 C 28.296875 -45.84375 32.429688 -44.46875 35.390625 -41.71875 C 38.347656 -38.976562 39.828125 -35.671875 39.828125 -31.796875 C 39.828125 -29.140625 39.019531 -26.546875 37.40625 -24.015625 C 35.800781 -21.492188 33.171875 -19.710938 29.515625 -18.671875 L 40.75 0 L 27.6875 0 L 17.375 -17.828125 Z M 16.0625 -37.34375 L 16.0625 -26.3125 L 22.984375 -26.3125 C 24.679688 -26.3125 26.019531 -26.8125 27 -27.8125 C 27.976562 -28.8125 28.46875 -30.128906 28.46875 -31.765625 C 28.46875 -33.398438 27.96875 -34.738281 26.96875 -35.78125 C 25.96875 -36.820312 24.640625 -37.34375 22.984375 -37.34375 Z M 16.0625 -37.34375 "/></g></g></g><g fill="#ff1616" fill-opacity="1"><g transform="translate(304.655066, 98.963797)"><g><path d="M 20.375 0.453125 C 15.0625 0.453125 10.707031 -1.253906 7.3125 -4.671875 C 3.914062 -8.085938 2.21875 -12.625 2.21875 -18.28125 C 2.21875 -23.9375 3.90625 -28.441406 7.28125 -31.796875 C 10.65625 -35.148438 15.019531 -36.828125 20.375 -36.828125 C 25.726562 -36.828125 30.164062 -35.171875 33.6875 -31.859375 C 37.21875 -28.554688 38.984375 -23.96875 38.984375 -18.09375 C 38.984375 -16.820312 38.894531 -15.644531 38.71875 -14.5625 L 13.640625 -14.5625 C 13.859375 -12.945312 14.578125 -11.628906 15.796875 -10.609375 C 17.015625 -9.585938 18.332031 -9.078125 19.75 -9.078125 C 21.164062 -9.078125 22.222656 -9.21875 22.921875 -9.5 C 23.617188 -9.78125 24.128906 -10.0625 24.453125 -10.34375 C 24.773438 -10.632812 25.203125 -11.101562 25.734375 -11.75 L 37.8125 -11.75 C 36.757812 -8.09375 34.664062 -5.144531 31.53125 -2.90625 C 28.40625 -0.664062 24.6875 0.453125 20.375 0.453125 Z M 27.359375 -21.546875 C 27.179688 -23.242188 26.441406 -24.625 25.140625 -25.6875 C 23.835938 -26.757812 22.289062 -27.296875 20.5 -27.296875 C 18.71875 -27.296875 17.21875 -26.757812 16 -25.6875 C 14.78125 -24.625 14.019531 -23.242188 13.71875 -21.546875 Z M 27.359375 -21.546875 "/></g></g></g><g fill="#ff1616" fill-opacity="1"><g transform="translate(345.91798, 98.963797)"><g><path d="M 27.09375 -11.546875 C 28.707031 -13.117188 29.515625 -15.34375 29.515625 -18.21875 C 29.515625 -21.09375 28.707031 -23.300781 27.09375 -24.84375 C 25.488281 -26.382812 23.640625 -27.15625 21.546875 -27.15625 C 19.453125 -27.15625 17.597656 -26.375 15.984375 -24.8125 C 14.378906 -23.25 13.578125 -21.03125 13.578125 -18.15625 C 13.578125 -15.28125 14.378906 -13.066406 15.984375 -11.515625 C 17.597656 -9.972656 19.453125 -9.203125 21.546875 -9.203125 C 23.640625 -9.203125 25.488281 -9.984375 27.09375 -11.546875 Z M 7.046875 -4.765625 C 3.828125 -8.242188 2.21875 -12.703125 2.21875 -18.140625 C 2.21875 -23.585938 3.828125 -28.0625 7.046875 -31.5625 C 10.273438 -35.070312 14.207031 -36.828125 18.84375 -36.828125 C 23.476562 -36.828125 27.035156 -35.109375 29.515625 -31.671875 L 29.515625 -48.3125 L 40.6875 -48.3125 L 40.6875 0 L 29.515625 0 L 29.515625 -5.28125 C 26.816406 -1.457031 23.203125 0.453125 18.671875 0.453125 C 14.148438 0.453125 10.273438 -1.285156 7.046875 -4.765625 Z M 7.046875 -4.765625 "/></g></g></g><g fill="#ff1616" fill-opacity="1"><g transform="translate(391.489985, 98.963797)"><g><path d="M 20.375 -9.46875 L 24.359375 -9.46875 L 24.359375 0 L 18.671875 0 C 14.578125 0 11.410156 -0.898438 9.171875 -2.703125 C 6.929688 -4.515625 5.8125 -7.617188 5.8125 -12.015625 L 5.8125 -27.15625 L 2.421875 -27.15625 L 2.421875 -36.4375 L 5.8125 -36.4375 L 5.8125 -45.3125 L 16.984375 -45.3125 L 16.984375 -36.4375 L 24.296875 -36.4375 L 24.296875 -27.15625 L 16.984375 -27.15625 L 16.984375 -12.015625 C 16.984375 -10.316406 18.113281 -9.46875 20.375 -9.46875 Z M 20.375 -9.46875 "/></g></g></g><g fill="#ff1616" fill-opacity="1"><g transform="translate(418.585095, 98.963797)"><g><path d="M 20.375 0.453125 C 15.0625 0.453125 10.707031 -1.253906 7.3125 -4.671875 C 3.914062 -8.085938 2.21875 -12.625 2.21875 -18.28125 C 2.21875 -23.9375 3.90625 -28.441406 7.28125 -31.796875 C 10.65625 -35.148438 15.019531 -36.828125 20.375 -36.828125 C 25.726562 -36.828125 30.164062 -35.171875 33.6875 -31.859375 C 37.21875 -28.554688 38.984375 -23.96875 38.984375 -18.09375 C 38.984375 -16.820312 38.894531 -15.644531 38.71875 -14.5625 L 13.640625 -14.5625 C 13.859375 -12.945312 14.578125 -11.628906 15.796875 -10.609375 C 17.015625 -9.585938 18.332031 -9.078125 19.75 -9.078125 C 21.164062 -9.078125 22.222656 -9.21875 22.921875 -9.5 C 23.617188 -9.78125 24.128906 -10.0625 24.453125 -10.34375 C 24.773438 -10.632812 25.203125 -11.101562 25.734375 -11.75 L 37.8125 -11.75 C 36.757812 -8.09375 34.664062 -5.144531 31.53125 -2.90625 C 28.40625 -0.664062 24.6875 0.453125 20.375 0.453125 Z M 27.359375 -21.546875 C 27.179688 -23.242188 26.441406 -24.625 25.140625 -25.6875 C 23.835938 -26.757812 22.289062 -27.296875 20.5 -27.296875 C 18.71875 -27.296875 17.21875 -26.757812 16 -25.6875 C 14.78125 -24.625 14.019531 -23.242188 13.71875 -21.546875 Z M 27.359375 -21.546875 "/></g></g></g><g fill="#ff1616" fill-opacity="1"><g transform="translate(459.848009, 98.963797)"><g><path d="M 27.09375 -11.546875 C 28.707031 -13.117188 29.515625 -15.34375 29.515625 -18.21875 C 29.515625 -21.09375 28.707031 -23.300781 27.09375 -24.84375 C 25.488281 -26.382812 23.640625 -27.15625 21.546875 -27.15625 C 19.453125 -27.15625 17.597656 -26.375 15.984375 -24.8125 C 14.378906 -23.25 13.578125 -21.03125 13.578125 -18.15625 C 13.578125 -15.28125 14.378906 -13.066406 15.984375 -11.515625 C 17.597656 -9.972656 19.453125 -9.203125 21.546875 -9.203125 C 23.640625 -9.203125 25.488281 -9.984375 27.09375 -11.546875 Z M 7.046875 -4.765625 C 3.828125 -8.242188 2.21875 -12.703125 2.21875 -18.140625 C 2.21875 -23.585938 3.828125 -28.0625 7.046875 -31.5625 C 10.273438 -35.070312 14.207031 -36.828125 18.84375 -36.828125 C 23.476562 -36.828125 27.035156 -35.109375 29.515625 -31.671875 L 29.515625 -36.4375 L 40.6875 -36.4375 L 40.6875 0 L 29.515625 0 L 29.515625 -5.28125 C 26.816406 -1.457031 23.203125 0.453125 18.671875 0.453125 C 14.148438 0.453125 10.273438 -1.285156 7.046875 -4.765625 Z M 7.046875 -4.765625 "/></g></g></g><g fill="#ff1616" fill-opacity="1"><g transform="translate(505.420015, 98.963797)"><g><path d="M 16.0625 -36.4375 L 16.0625 -31.078125 C 18.375 -34.910156 22.050781 -36.828125 27.09375 -36.828125 C 29.789062 -36.828125 32.195312 -36.21875 34.3125 -35 C 36.425781 -33.78125 38.070312 -32.039062 39.25 -29.78125 C 40.59375 -31.90625 42.34375 -33.609375 44.5 -34.890625 C 46.65625 -36.179688 49.0625 -36.828125 51.71875 -36.828125 C 56.15625 -36.828125 59.679688 -35.453125 62.296875 -32.703125 C 64.910156 -29.960938 66.21875 -26.15625 66.21875 -21.28125 L 66.21875 0 L 55.109375 0 L 55.109375 -19.78125 C 55.109375 -22.132812 54.488281 -23.953125 53.25 -25.234375 C 52.007812 -26.515625 50.300781 -27.15625 48.125 -27.15625 C 45.945312 -27.15625 44.238281 -26.515625 43 -25.234375 C 41.757812 -23.953125 41.140625 -22.132812 41.140625 -19.78125 L 41.140625 0 L 30.03125 0 L 30.03125 -19.78125 C 30.03125 -22.132812 29.410156 -23.953125 28.171875 -25.234375 C 26.929688 -26.515625 25.222656 -27.15625 23.046875 -27.15625 C 20.867188 -27.15625 19.160156 -26.515625 17.921875 -25.234375 C 16.679688 -23.953125 16.0625 -22.132812 16.0625 -19.78125 L 16.0625 0 L 4.890625 0 L 4.890625 -36.4375 Z M 16.0625 -36.4375 "/></g></g></g><g fill="#814256" fill-opacity="1"><g transform="translate(576.181457, 98.963797)"><g/></g></g><g fill="#5271ff" fill-opacity="1"><g transform="translate(261.041737, 163.521071)"><g><path d="M 39.828125 -31.796875 C 39.828125 -28.703125 38.71875 -25.722656 36.5 -22.859375 C 35.320312 -21.378906 33.566406 -20.171875 31.234375 -19.234375 C 28.910156 -18.296875 26.160156 -17.828125 22.984375 -17.828125 L 16.0625 -17.828125 L 16.0625 0 L 4.890625 0 L 4.890625 -45.84375 L 22.984375 -45.84375 C 28.296875 -45.84375 32.429688 -44.46875 35.390625 -41.71875 C 38.347656 -38.976562 39.828125 -35.671875 39.828125 -31.796875 Z M 16.0625 -26.3125 L 22.984375 -26.3125 C 24.679688 -26.3125 26.019531 -26.8125 27 -27.8125 C 27.976562 -28.8125 28.46875 -30.128906 28.46875 -31.765625 C 28.46875 -33.398438 27.96875 -34.738281 26.96875 -35.78125 C 25.96875 -36.820312 24.640625 -37.34375 22.984375 -37.34375 L 16.0625 -37.34375 Z M 16.0625 -26.3125 "/></g></g></g><g fill="#5271ff" fill-opacity="1"><g transform="translate(302.696374, 163.521071)"><g><path d="M 4.890625 0 L 4.890625 -48.3125 L 16.0625 -48.3125 L 16.0625 0 Z M 4.890625 0 "/></g></g></g><g fill="#5271ff" fill-opacity="1"><g transform="translate(323.65427, 163.521071)"><g><path d="M 27.09375 -11.546875 C 28.707031 -13.117188 29.515625 -15.34375 29.515625 -18.21875 C 29.515625 -21.09375 28.707031 -23.300781 27.09375 -24.84375 C 25.488281 -26.382812 23.640625 -27.15625 21.546875 -27.15625 C 19.453125 -27.15625 17.597656 -26.375 15.984375 -24.8125 C 14.378906 -23.25 13.578125 -21.03125 13.578125 -18.15625 C 13.578125 -15.28125 14.378906 -13.066406 15.984375 -11.515625 C 17.597656 -9.972656 19.453125 -9.203125 21.546875 -9.203125 C 23.640625 -9.203125 25.488281 -9.984375 27.09375 -11.546875 Z M 7.046875 -4.765625 C 3.828125 -8.242188 2.21875 -12.703125 2.21875 -18.140625 C 2.21875 -23.585938 3.828125 -28.0625 7.046875 -31.5625 C 10.273438 -35.070312 14.207031 -36.828125 18.84375 -36.828125 C 23.476562 -36.828125 27.035156 -35.109375 29.515625 -31.671875 L 29.515625 -36.4375 L 40.6875 -36.4375 L 40.6875 0 L 29.515625 0 L 29.515625 -5.28125 C 26.816406 -1.457031 23.203125 0.453125 18.671875 0.453125 C 14.148438 0.453125 10.273438 -1.285156 7.046875 -4.765625 Z M 7.046875 -4.765625 "/></g></g></g><g fill="#5271ff" fill-opacity="1"><g transform="translate(369.226275, 163.521071)"><g><path d="M 14.4375 -0.71875 L 0.265625 -36.4375 L 12.921875 -36.4375 L 21.03125 -12.609375 L 29.90625 -36.4375 L 41.59375 -36.4375 L 18.34375 17.375 L 6.65625 17.375 Z M 14.4375 -0.71875 "/></g></g></g><g fill="#5271ff" fill-opacity="1"><g transform="translate(411.076781, 163.521071)"><g><path d="M 29.578125 -11.515625 C 31.191406 -13.066406 32 -15.28125 32 -18.15625 C 32 -21.03125 31.191406 -23.25 29.578125 -24.8125 C 27.960938 -26.375 26.109375 -27.15625 24.015625 -27.15625 C 21.929688 -27.15625 20.082031 -26.382812 18.46875 -24.84375 C 16.863281 -23.300781 16.0625 -21.09375 16.0625 -18.21875 C 16.0625 -15.34375 16.863281 -13.117188 18.46875 -11.546875 C 20.082031 -9.984375 21.929688 -9.203125 24.015625 -9.203125 C 26.109375 -9.203125 27.960938 -9.972656 29.578125 -11.515625 Z M 16.0625 -31.671875 C 18.539062 -35.109375 22.097656 -36.828125 26.734375 -36.828125 C 31.367188 -36.828125 35.296875 -35.070312 38.515625 -31.5625 C 41.742188 -28.0625 43.359375 -23.585938 43.359375 -18.140625 C 43.359375 -12.703125 41.742188 -8.242188 38.515625 -4.765625 C 35.296875 -1.285156 31.398438 0.453125 26.828125 0.453125 C 22.265625 0.453125 18.675781 -1.457031 16.0625 -5.28125 L 16.0625 0 L 4.890625 0 L 4.890625 -48.3125 L 16.0625 -48.3125 Z M 16.0625 -31.671875 "/></g></g></g><g fill="#5271ff" fill-opacity="1"><g transform="translate(456.648787, 163.521071)"><g><path d="M 26.765625 -11.421875 C 28.242188 -12.992188 28.984375 -15.257812 28.984375 -18.21875 C 28.984375 -21.175781 28.222656 -23.425781 26.703125 -24.96875 C 25.179688 -26.519531 23.375 -27.296875 21.28125 -27.296875 C 19.195312 -27.296875 17.398438 -26.519531 15.890625 -24.96875 C 14.390625 -23.425781 13.640625 -21.175781 13.640625 -18.21875 C 13.640625 -15.257812 14.410156 -12.992188 15.953125 -11.421875 C 17.503906 -9.859375 19.320312 -9.078125 21.40625 -9.078125 C 23.5 -9.078125 25.285156 -9.859375 26.765625 -11.421875 Z M 7.796875 -4.703125 C 4.117188 -8.140625 2.28125 -12.664062 2.28125 -18.28125 C 2.28125 -23.894531 4.109375 -28.390625 7.765625 -31.765625 C 11.421875 -35.140625 15.945312 -36.828125 21.34375 -36.828125 C 26.75 -36.828125 31.269531 -35.140625 34.90625 -31.765625 C 38.539062 -28.390625 40.359375 -23.894531 40.359375 -18.28125 C 40.359375 -12.664062 38.550781 -8.140625 34.9375 -4.703125 C 31.320312 -1.265625 26.816406 0.453125 21.421875 0.453125 C 16.023438 0.453125 11.484375 -1.265625 7.796875 -4.703125 Z M 7.796875 -4.703125 "/></g></g></g><g fill="#5271ff" fill-opacity="1"><g transform="translate(499.28277, 163.521071)"><g><path d="M 26.765625 -11.421875 C 28.242188 -12.992188 28.984375 -15.257812 28.984375 -18.21875 C 28.984375 -21.175781 28.222656 -23.425781 26.703125 -24.96875 C 25.179688 -26.519531 23.375 -27.296875 21.28125 -27.296875 C 19.195312 -27.296875 17.398438 -26.519531 15.890625 -24.96875 C 14.390625 -23.425781 13.640625 -21.175781 13.640625 -18.21875 C 13.640625 -15.257812 14.410156 -12.992188 15.953125 -11.421875 C 17.503906 -9.859375 19.320312 -9.078125 21.40625 -9.078125 C 23.5 -9.078125 25.285156 -9.859375 26.765625 -11.421875 Z M 7.796875 -4.703125 C 4.117188 -8.140625 2.28125 -12.664062 2.28125 -18.28125 C 2.28125 -23.894531 4.109375 -28.390625 7.765625 -31.765625 C 11.421875 -35.140625 15.945312 -36.828125 21.34375 -36.828125 C 26.75 -36.828125 31.269531 -35.140625 34.90625 -31.765625 C 38.539062 -28.390625 40.359375 -23.894531 40.359375 -18.28125 C 40.359375 -12.664062 38.550781 -8.140625 34.9375 -4.703125 C 31.320312 -1.265625 26.816406 0.453125 21.421875 0.453125 C 16.023438 0.453125 11.484375 -1.265625 7.796875 -4.703125 Z M 7.796875 -4.703125 "/></g></g></g><g fill="#5271ff" fill-opacity="1"><g transform="translate(541.916737, 163.521071)"><g><path d="M 16.0625 0 L 4.890625 0 L 4.890625 -48.3125 L 16.0625 -48.3125 L 16.0625 -21.21875 L 27.359375 -36.4375 L 42.375 -36.4375 L 26.765625 -17.828125 L 42.375 0 L 27.5625 0 L 16.0625 -14.5625 Z M 16.0625 0 "/></g></g></g><g clip-path="url(#id1)"><path fill="#cb6ce6" d="M 240.585938 25.957031 C 239.050781 24.789062 237.023438 24.339844 235.109375 24.753906 C 235.109375 24.753906 234.871094 24.808594 234.519531 24.890625 L 234.519531 189.148438 L 30.992188 189.148438 L 30.992188 24.890625 C 30.632812 24.808594 30.398438 24.753906 30.398438 24.753906 C 28.472656 24.339844 26.453125 24.808594 24.917969 25.957031 C 23.394531 27.132812 22.5 28.90625 22.5 30.773438 L 22.5 192.148438 C 22.5 195.554688 25.394531 198.304688 28.976562 198.304688 L 106.917969 198.304688 C 106.683594 198.9375 106.496094 199.578125 106.496094 200.285156 C 106.496094 203.691406 109.378906 206.441406 112.976562 206.441406 L 152.546875 206.441406 C 156.125 206.441406 159.023438 203.691406 159.023438 200.285156 C 159.023438 199.578125 158.828125 198.9375 158.589844 198.304688 L 236.523438 198.304688 C 240.117188 198.304688 243 195.554688 243 192.148438 L 243 30.773438 C 243 28.90625 242.121094 27.132812 240.585938 25.957031 Z M 39.6875 184.710938 C 39.71875 184.789062 39.78125 184.804688 39.808594 184.871094 C 39.863281 184.953125 39.902344 185.027344 39.976562 185.089844 C 40.078125 185.171875 40.160156 185.214844 40.289062 185.242188 C 40.359375 185.242188 40.394531 185.296875 40.445312 185.296875 C 40.476562 185.296875 40.515625 185.265625 40.546875 185.265625 C 40.597656 185.242188 40.625 185.273438 40.660156 185.265625 L 62.226562 176.351562 C 88.144531 166.378906 105.824219 159.566406 127.058594 180.28125 L 127.058594 32.503906 C 108.929688 14.691406 93.964844 17.367188 73.96875 21.027344 C 63.464844 22.964844 54.953125 25.164062 40.464844 24.664062 C 40.464844 24.664062 40.464844 24.664062 40.445312 24.664062 C 40.34375 24.664062 40.257812 24.753906 40.160156 24.789062 C 40.078125 24.835938 39.960938 24.835938 39.878906 24.917969 C 39.828125 24.980469 39.808594 25.082031 39.78125 25.179688 C 39.730469 25.273438 39.644531 25.363281 39.628906 25.476562 C 39.628906 25.496094 39.644531 25.496094 39.644531 25.496094 C 39.644531 25.507812 39.628906 25.507812 39.628906 25.507812 L 39.628906 184.449219 C 39.628906 184.503906 39.6875 184.53125 39.699219 184.578125 C 39.699219 184.632812 39.667969 184.675781 39.6875 184.710938 Z M 203.378906 176.628906 L 224.46875 185.128906 C 224.628906 185.304688 224.816406 185.433594 225.058594 185.433594 C 225.445312 185.433594 225.714844 185.136719 225.777344 184.773438 C 225.792969 184.742188 225.820312 184.742188 225.820312 184.710938 C 225.847656 184.695312 225.820312 184.675781 225.820312 184.660156 C 225.820312 184.632812 225.855469 184.613281 225.855469 184.59375 L 225.855469 25.273438 C 225.855469 25.257812 225.847656 25.257812 225.847656 25.257812 C 225.847656 25.242188 225.855469 25.242188 225.855469 25.242188 C 225.855469 25.109375 225.761719 25.03125 225.714844 24.9375 C 225.683594 24.851562 225.667969 24.742188 225.613281 24.664062 C 225.53125 24.578125 225.425781 24.554688 225.3125 24.546875 C 225.21875 24.5 225.167969 24.417969 225.058594 24.417969 C 225.042969 24.417969 225.042969 24.425781 225.042969 24.425781 C 225.042969 24.425781 225.042969 24.417969 225.03125 24.417969 C 210.753906 24.917969 201.722656 22.820312 190.765625 20.984375 C 169.839844 17.449219 152.90625 14.714844 136.386719 32.332031 L 136.386719 180.253906 C 156.058594 159.199219 175.230469 166.25 203.378906 176.628906 Z M 203.378906 176.628906 " fill-opacity="1" fill-rule="nonzero"/></g></svg>